<?xml version="1.0" encoding="UTF-8"?>
<svg width="495" height="380" viewBox="0 0 495 380" fill="none" xmlns="http://www.w3.org/2000/svg" role="img" aria-labelledby="title desc">
  <title id="title">Vikramaditya Khupse&apos;s GitHub Stats</title>
  <desc id="desc">Vikramaditya Khupse&apos;s GitHub Stats</desc>
  <defs>
    <linearGradient id="accent-gradient" x1="0" y1="0" x2="1" y2="1">
      <stop offset="0%" stop-color="#58a6ff" />
      <stop offset="100%" stop-color="#3fb950" />
    </linearGradient>
    
  </defs>
  <style>
    .title { fill: #f0f6fc; font: 700 20px 'Segoe UI', Ubuntu, Sans-Serif; }
    .label { fill: #8b949e; font: 600 11px 'Segoe UI', Ubuntu, Sans-Serif; letter-spacing: 0.08em; text-transform: uppercase; }
    .value { fill: #c9d1d9; font: 700 18px 'Segoe UI', Ubuntu, Sans-Serif; }
    .meta { fill: #8b949e; font: 500 12px 'Segoe UI', Ubuntu, Sans-Serif; }
    .small { fill: #8b949e; font: 500 11px 'Segoe UI', Ubuntu, Sans-Serif; }
  </style>
  <rect x="0.5" y="0.5" width="494" height="379" rx="16" fill="#0d1117" stroke="#30363d" />
  
    <rect x="20" y="20" width="455" height="64" rx="16" fill="#161b22" />
    <text x="32" y="48" class="title">Vikramaditya Khupse&apos;s GitHub Stats</text>
    <text x="32" y="68" class="meta">@Phantom-VK • built from your own GitHub API backend</text>

    <g transform="translate(365 32)">
      <rect width="88" height="40" rx="20" fill="url(#accent-gradient)" opacity="0.18" />
      <text x="44" y="17" text-anchor="middle" class="label" style="fill:#f0f6fc">Rank</text>
      <text x="44" y="31" text-anchor="middle" class="value" style="fill:#f0f6fc; font-size:16px;">B</text>
    </g>

    
    <g transform="translate(20 98)">
      <rect width="200" height="52" rx="12" fill="rgba(255,255,255,0.02)" stroke="rgba(255,255,255,0.04)" />
      <rect x="14" y="16" width="10" height="10" rx="3" fill="#d29922" />
      <text x="34" y="25" class="label">Stars</text>
      <text x="14" y="42" class="value">22</text>
    </g>
  
    
    <g transform="translate(255 98)">
      <rect width="200" height="52" rx="12" fill="rgba(255,255,255,0.02)" stroke="rgba(255,255,255,0.04)" />
      <rect x="14" y="16" width="10" height="10" rx="3" fill="#58a6ff" />
      <text x="34" y="25" class="label">Repositories</text>
      <text x="14" y="42" class="value">54</text>
    </g>
  
    
    <g transform="translate(20 158)">
      <rect width="200" height="52" rx="12" fill="rgba(255,255,255,0.02)" stroke="rgba(255,255,255,0.04)" />
      <rect x="14" y="16" width="10" height="10" rx="3" fill="#3fb950" />
      <text x="34" y="25" class="label">Pull Requests</text>
      <text x="14" y="42" class="value">72</text>
    </g>
  
    
    <g transform="translate(255 158)">
      <rect width="200" height="52" rx="12" fill="rgba(255,255,255,0.02)" stroke="rgba(255,255,255,0.04)" />
      <rect x="14" y="16" width="10" height="10" rx="3" fill="#1f6feb" />
      <text x="34" y="25" class="label">Issues</text>
      <text x="14" y="42" class="value">15</text>
    </g>
  
    
    <g transform="translate(20 218)">
      <rect width="200" height="52" rx="12" fill="rgba(255,255,255,0.02)" stroke="rgba(255,255,255,0.04)" />
      <rect x="14" y="16" width="10" height="10" rx="3" fill="#58a6ff" />
      <text x="34" y="25" class="label">Commits</text>
      <text x="14" y="42" class="value">1.1K</text>
    </g>
  
    
    <g transform="translate(255 218)">
      <rect width="200" height="52" rx="12" fill="rgba(255,255,255,0.02)" stroke="rgba(255,255,255,0.04)" />
      <rect x="14" y="16" width="10" height="10" rx="3" fill="#3fb950" />
      <text x="34" y="25" class="label">Reviews</text>
      <text x="14" y="42" class="value">33</text>
    </g>
  
    
    <g transform="translate(20 278)">
      <rect width="200" height="52" rx="12" fill="rgba(255,255,255,0.02)" stroke="rgba(255,255,255,0.04)" />
      <rect x="14" y="16" width="10" height="10" rx="3" fill="#d29922" />
      <text x="34" y="25" class="label">Followers</text>
      <text x="14" y="42" class="value">4</text>
    </g>
  
    
    <g transform="translate(255 278)">
      <rect width="200" height="52" rx="12" fill="rgba(255,255,255,0.02)" stroke="rgba(255,255,255,0.04)" />
      <rect x="14" y="16" width="10" height="10" rx="3" fill="#1f6feb" />
      <text x="34" y="25" class="label">Contributed To</text>
      <text x="14" y="42" class="value">4</text>
    </g>
  

    <text x="32" y="354" class="small">Score 618 • refresh this card with GitHub Actions on your schedule</text>
  
</svg>