<?xml version="1.0" encoding="UTF-8"?>
<svg width="430" height="316" viewBox="0 0 430 316" fill="none" xmlns="http://www.w3.org/2000/svg" role="img" aria-labelledby="title desc">
  <title id="title">Vikramaditya Khupse&apos;s GitHub Stats</title>
  <desc id="desc">Vikramaditya Khupse&apos;s GitHub Stats</desc>
  <defs>
    <linearGradient id="accent-gradient" x1="0" y1="0" x2="1" y2="1">
      <stop offset="0%" stop-color="#58a6ff" />
      <stop offset="100%" stop-color="#3fb950" />
    </linearGradient>
    <linearGradient id="surface-gradient" x1="0" y1="0" x2="1" y2="1">
      <stop offset="0%" stop-color="#0d1117" />
      <stop offset="100%" stop-color="#161b22" />
    </linearGradient>
    <radialGradient id="glow-blue" cx="0" cy="0" r="1" gradientUnits="userSpaceOnUse" gradientTransform="translate(77.39999999999999 37.92) rotate(37) scale(163.4 164.32)">
      <stop stop-color="#58a6ff" stop-opacity="0.14" />
      <stop offset="1" stop-color="#58a6ff" stop-opacity="0" />
    </radialGradient>
    <radialGradient id="glow-green" cx="0" cy="0" r="1" gradientUnits="userSpaceOnUse" gradientTransform="translate(378.4 47.4) rotate(140) scale(120.4 126.4)">
      <stop stop-color="#3fb950" stop-opacity="0.12" />
      <stop offset="1" stop-color="#3fb950" stop-opacity="0" />
    </radialGradient>
    
  </defs>
  <style>
    .title { fill: #f0f6fc; font: 700 18px 'Segoe UI', Ubuntu, Sans-Serif; }
    .label { fill: #8b949e; font: 600 10px 'Segoe UI', Ubuntu, Sans-Serif; letter-spacing: 0.08em; text-transform: uppercase; }
    .value { fill: #c9d1d9; font: 700 15px 'Segoe UI', Ubuntu, Sans-Serif; }
    .meta { fill: #8b949e; font: 500 11px 'Segoe UI', Ubuntu, Sans-Serif; }
    .small { fill: #8b949e; font: 500 10px 'Segoe UI', Ubuntu, Sans-Serif; }
    .pill { fill: #f0f6fc; font: 700 9px 'Segoe UI', Ubuntu, Sans-Serif; letter-spacing: 0.12em; text-transform: uppercase; }
  </style>
  <rect x="0.5" y="0.5" width="429" height="315" rx="18" fill="url(#surface-gradient)" stroke="#30363d" />
  <rect x="0.5" y="0.5" width="429" height="315" rx="18" fill="url(#glow-blue)" />
  <rect x="0.5" y="0.5" width="429" height="315" rx="18" fill="url(#glow-green)" />
  
    <rect x="16" y="16" width="398" height="68" rx="16" fill="rgba(13,17,23,0.56)" stroke="rgba(240,246,252,0.08)" />
    <rect x="28" y="28" width="78" height="20" rx="10" fill="url(#accent-gradient)" opacity="0.2" />
    <text x="67" y="41" text-anchor="middle" class="pill">GitHub Stats</text>
    <text x="28" y="64" class="title">GitHub Stats</text>
    <text x="28" y="78" class="meta">Vikramaditya Khupse • Phantom-VK</text>

    
    <g transform="translate(318 28)">
      <rect width="88" height="38" rx="12" fill="rgba(13,17,23,0.58)" stroke="rgba(240,246,252,0.08)" />
      <text x="14" y="15" class="small">Rank</text>
      <text x="14" y="31" style="fill:#f0f6fc; font: 800 18px 'Segoe UI', Ubuntu, Sans-Serif;">B</text>
      <text x="74" y="31" text-anchor="end" class="small">@Phantom-VK</text>
    </g>
  

    
    <g transform="translate(16 98)">
      <rect width="186" height="44" rx="12" fill="rgba(13,17,23,0.46)" stroke="rgba(240,246,252,0.08)" />
      <circle cx="18" cy="22" r="9" fill="#d29922" fill-opacity="0.18" />
      <text x="18" y="25" text-anchor="middle" style="fill:#d29922; font: 700 10px 'Segoe UI', Ubuntu, Sans-Serif;">★</text>
      <text x="34" y="18" class="label">Stars</text>
      <text x="34" y="32" class="value">22</text>
    </g>
  
    
    <g transform="translate(212 98)">
      <rect width="186" height="44" rx="12" fill="rgba(13,17,23,0.46)" stroke="rgba(240,246,252,0.08)" />
      <circle cx="18" cy="22" r="9" fill="#58a6ff" fill-opacity="0.18" />
      <text x="18" y="25" text-anchor="middle" style="fill:#58a6ff; font: 700 10px 'Segoe UI', Ubuntu, Sans-Serif;">▣</text>
      <text x="34" y="18" class="label">Repos</text>
      <text x="34" y="32" class="value">54</text>
    </g>
  
    
    <g transform="translate(16 150)">
      <rect width="186" height="44" rx="12" fill="rgba(13,17,23,0.46)" stroke="rgba(240,246,252,0.08)" />
      <circle cx="18" cy="22" r="9" fill="#3fb950" fill-opacity="0.18" />
      <text x="18" y="25" text-anchor="middle" style="fill:#3fb950; font: 700 10px 'Segoe UI', Ubuntu, Sans-Serif;">⇄</text>
      <text x="34" y="18" class="label">PRs</text>
      <text x="34" y="32" class="value">72</text>
    </g>
  
    
    <g transform="translate(212 150)">
      <rect width="186" height="44" rx="12" fill="rgba(13,17,23,0.46)" stroke="rgba(240,246,252,0.08)" />
      <circle cx="18" cy="22" r="9" fill="#1f6feb" fill-opacity="0.18" />
      <text x="18" y="25" text-anchor="middle" style="fill:#1f6feb; font: 700 10px 'Segoe UI', Ubuntu, Sans-Serif;">!</text>
      <text x="34" y="18" class="label">Issues</text>
      <text x="34" y="32" class="value">15</text>
    </g>
  
    
    <g transform="translate(16 202)">
      <rect width="186" height="44" rx="12" fill="rgba(13,17,23,0.46)" stroke="rgba(240,246,252,0.08)" />
      <circle cx="18" cy="22" r="9" fill="#58a6ff" fill-opacity="0.18" />
      <text x="18" y="25" text-anchor="middle" style="fill:#58a6ff; font: 700 10px 'Segoe UI', Ubuntu, Sans-Serif;">↺</text>
      <text x="34" y="18" class="label">Commits</text>
      <text x="34" y="32" class="value">1.1K</text>
    </g>
  
    
    <g transform="translate(212 202)">
      <rect width="186" height="44" rx="12" fill="rgba(13,17,23,0.46)" stroke="rgba(240,246,252,0.08)" />
      <circle cx="18" cy="22" r="9" fill="#3fb950" fill-opacity="0.18" />
      <text x="18" y="25" text-anchor="middle" style="fill:#3fb950; font: 700 10px 'Segoe UI', Ubuntu, Sans-Serif;">✓</text>
      <text x="34" y="18" class="label">Reviews</text>
      <text x="34" y="32" class="value">33</text>
    </g>
  
    
    <g transform="translate(16 254)">
      <rect width="186" height="44" rx="12" fill="rgba(13,17,23,0.46)" stroke="rgba(240,246,252,0.08)" />
      <circle cx="18" cy="22" r="9" fill="#d29922" fill-opacity="0.18" />
      <text x="18" y="25" text-anchor="middle" style="fill:#d29922; font: 700 10px 'Segoe UI', Ubuntu, Sans-Serif;">◎</text>
      <text x="34" y="18" class="label">Followers</text>
      <text x="34" y="32" class="value">4</text>
    </g>
  
    
    <g transform="translate(212 254)">
      <rect width="186" height="44" rx="12" fill="rgba(13,17,23,0.46)" stroke="rgba(240,246,252,0.08)" />
      <circle cx="18" cy="22" r="9" fill="#1f6feb" fill-opacity="0.18" />
      <text x="18" y="25" text-anchor="middle" style="fill:#1f6feb; font: 700 10px 'Segoe UI', Ubuntu, Sans-Serif;">↗</text>
      <text x="34" y="18" class="label">Contribs</text>
      <text x="34" y="32" class="value">4</text>
    </g>
  
  
</svg>