<?xml version="1.0" encoding="UTF-8"?>
<svg
  width="480"
  height="299"
  viewBox="0 0 480 299"
  fill="none"
  xmlns="http://www.w3.org/2000/svg"
  role="img"
  aria-labelledby="titleId descId"
>
  <title id="titleId">Vikramaditya Khupse&apos;s GitHub Stats</title>
  <desc id="descId">Vikramaditya Khupse&apos;s GitHub Stats</desc>

  <defs>
    <radialGradient id="ambient-glow" cx="0" cy="0" r="1"
      gradientUnits="userSpaceOnUse"
      gradientTransform="translate(0 0) scale(384 329)">
      <stop offset="0%"   stop-color="#58a6ff" stop-opacity="0.06" />
      <stop offset="100%" stop-color="#58a6ff" stop-opacity="0"    />
    </radialGradient>
    
  </defs>

  <style>
    .header {
      font: 600 18px 'Segoe UI', Ubuntu, Sans-Serif;
      fill: #58a6ff;
      animation: fadeIn 0.8s ease-in-out forwards;
    }
    @supports (-moz-appearance: auto) { .header { font-size: 15.5px; } }

    .stat {
      font: 600 14px 'Segoe UI', Ubuntu, 'Helvetica Neue', Sans-Serif;
      fill: #c9d1d9;
    }
    @supports (-moz-appearance: auto) { .stat { font-size: 12px; } }

    .bold  { font-weight: 700; }
    .label { font: 600 11px 'Segoe UI', Ubuntu, Sans-Serif; fill: #8b949e; text-transform: uppercase; letter-spacing: 0.07em; }
    .small { font: 400 11px 'Segoe UI', Ubuntu, Sans-Serif; fill: #8b949e; }
    .lang-name { font: 400 11px 'Segoe UI', Ubuntu, Sans-Serif; fill: #c9d1d9; }

    .rank-text  { font: 800 24px 'Segoe UI', Ubuntu, Sans-Serif; fill: #c9d1d9; animation: scaleIn 0.3s ease-in-out forwards; }
    .rank-label { font: 600 9px 'Segoe UI', Ubuntu, Sans-Serif; fill: #8b949e; text-transform: uppercase; letter-spacing: 0.1em; }

    .icon { fill: #58a6ff; display: block; }

    .rank-circle-rim {
      stroke: #58a6ff; fill: none; stroke-width: 5; opacity: 0.18;
    }
    .rank-circle {
      stroke: #58a6ff;
      stroke-dasharray: 250;
      fill: none;
      stroke-width: 5;
      stroke-linecap: round;
      opacity: 0.85;
      transform-origin: -10px 8px;
      transform: rotate(-90deg);
      animation: rankSpin 1s forwards ease-in-out;
    }

    .stagger { opacity: 0; animation: fadeIn 0.3s ease-in-out forwards; }

    .lang-progress { animation: growWidth 0.6s ease-in-out forwards; }
    #rect-mask rect { animation: slideIn 1s ease-in-out forwards; }

    @keyframes fadeIn   { from { opacity: 0; } to { opacity: 1; } }
    @keyframes scaleIn  { from { transform: translate(-5px,5px) scale(0); } to { transform: translate(-5px,5px) scale(1); } }
    @keyframes rankSpin { from { stroke-dashoffset: 251; } to { stroke-dashoffset: 110; } }
    @keyframes growWidth { from { width: 0; } to { width: 100%; } }
    @keyframes slideIn   { from { width: 0; } to { width: calc(100% - 100px); } }
  </style>

  <!-- Card surface -->
  <rect x="0.5" y="0.5" rx="8"
    width="479" height="298"
    fill="#0d1117"
    stroke="#30363d" stroke-opacity="0.9"
  />
  <!-- Ambient glow overlay -->
  <rect x="0.5" y="0.5" rx="8"
    width="479" height="298"
    fill="url(#ambient-glow)"
  />

  
  <!-- Title -->
  <g data-testid="card-title" transform="translate(25, 35)">
    <text x="0" y="0" class="header" data-testid="header"
    >Vikramaditya Khupse's GitHub Stats</text>
  </g>

  <!-- Stat rows -->
  <g data-testid="main-card-body" transform="translate(0, 55)">
    <svg x="0" y="0">
      
  <g transform="translate(0, 0)">
    <g class="stagger" style="animation-delay: 450ms" transform="translate(25, 0)">
      <svg data-testid="icon" class="icon" viewBox="0 0 16 16" version="1.1" width="16" height="16">
      <path fill-rule="evenodd" d="M8 .25a.75.75 0 01.673.418l1.882 3.815 4.21.612a.75.75 0 01.416 1.279l-3.046 2.97.719 4.192a.75.75 0 01-1.088.791L8 12.347l-3.766 1.98a.75.75 0 01-1.088-.79l.72-4.194L.818 6.374a.75.75 0 01.416-1.28l4.21-.611L7.327.668A.75.75 0 018 .25zm0 2.445L6.615 5.5a.75.75 0 01-.564.41l-3.097.45 2.24 2.184a.75.75 0 01.216.664l-.528 3.084 2.769-1.456a.75.75 0 01.698 0l2.77 1.456-.53-3.084a.75.75 0 01.216-.664l2.24-2.183-3.096-.45a.75.75 0 01-.564-.41L8 2.694v.001z"/>
    </svg>
      <text class="stat bold" x="25" y="12.5">Total Stars Earned:</text>
      <text class="stat bold" x="341" y="12.5" text-anchor="end">22</text>
    </g>
    <line x1="25" y1="22" x2="361" y2="22" stroke="currentColor" stroke-opacity="0.07" stroke-width="1"/>
  </g>
  <g transform="translate(0, 28)">
    <g class="stagger" style="animation-delay: 600ms" transform="translate(25, 0)">
      <svg data-testid="icon" class="icon" viewBox="0 0 16 16" version="1.1" width="16" height="16">
      <path fill-rule="evenodd" d="M2 2.5A2.5 2.5 0 014.5 0h8.75a.75.75 0 01.75.75v12.5a.75.75 0 01-.75.75h-2.5a.75.75 0 110-1.5h1.75v-2h-8a1 1 0 00-.714 1.7.75.75 0 01-1.072 1.05A2.495 2.495 0 012 11.5v-9zm10.5-1V9h-8c-.356 0-.694.074-1 .208V2.5a1 1 0 011-1h8zM5 12.25v3.25a.25.25 0 00.4.2l1.45-1.087a.25.25 0 01.3 0L8.6 15.7a.25.25 0 00.4-.2v-3.25a.25.25 0 00-.25-.25h-3.5a.25.25 0 00-.25.25z"/>
    </svg>
      <text class="stat bold" x="25" y="12.5">Total Repos:</text>
      <text class="stat bold" x="341" y="12.5" text-anchor="end">54</text>
    </g>
    <line x1="25" y1="22" x2="361" y2="22" stroke="currentColor" stroke-opacity="0.07" stroke-width="1"/>
  </g>
  <g transform="translate(0, 56)">
    <g class="stagger" style="animation-delay: 750ms" transform="translate(25, 0)">
      <svg data-testid="icon" class="icon" viewBox="0 0 16 16" version="1.1" width="16" height="16">
      <path fill-rule="evenodd" d="M1.643 3.143L.427 1.927A.25.25 0 000 2.104V5.75c0 .138.112.25.25.25h3.646a.25.25 0 00.177-.427L2.715 4.215a6.5 6.5 0 11-1.18 4.458.75.75 0 10-1.493.154 8.001 8.001 0 101.6-5.684zM7.75 4a.75.75 0 01.75.75v2.992l2.028.812a.75.75 0 01-.557 1.392l-2.5-1A.75.75 0 017 8.25v-3.5A.75.75 0 017.75 4z"/>
    </svg>
      <text class="stat bold" x="25" y="12.5">Total Commits (last year):</text>
      <text class="stat bold" x="341" y="12.5" text-anchor="end">1.1K</text>
    </g>
    <line x1="25" y1="22" x2="361" y2="22" stroke="currentColor" stroke-opacity="0.07" stroke-width="1"/>
  </g>
  <g transform="translate(0, 84)">
    <g class="stagger" style="animation-delay: 900ms" transform="translate(25, 0)">
      <svg data-testid="icon" class="icon" viewBox="0 0 16 16" version="1.1" width="16" height="16">
      <path fill-rule="evenodd" d="M7.177 3.073L9.573.677A.25.25 0 0110 .854v4.792a.25.25 0 01-.427.177L7.177 3.427a.25.25 0 010-.354zM3.75 2.5a.75.75 0 100 1.5.75.75 0 000-1.5zm-2.25.75a2.25 2.25 0 113 2.122v5.256a2.251 2.251 0 11-1.5 0V5.372A2.25 2.25 0 011.5 3.25zM11 2.5h-1V4h1a1 1 0 011 1v5.628a2.251 2.251 0 101.5 0V5A2.5 2.5 0 0011 2.5zm1 10.25a.75.75 0 111.5 0 .75.75 0 01-1.5 0zM3.75 12a.75.75 0 100 1.5.75.75 0 000-1.5z"/>
    </svg>
      <text class="stat bold" x="25" y="12.5">Total PRs:</text>
      <text class="stat bold" x="341" y="12.5" text-anchor="end">72</text>
    </g>
    <line x1="25" y1="22" x2="361" y2="22" stroke="currentColor" stroke-opacity="0.07" stroke-width="1"/>
  </g>
  <g transform="translate(0, 112)">
    <g class="stagger" style="animation-delay: 1050ms" transform="translate(25, 0)">
      <svg data-testid="icon" class="icon" viewBox="0 0 16 16" version="1.1" width="16" height="16">
      <path fill-rule="evenodd" d="M8 1.5a6.5 6.5 0 100 13 6.5 6.5 0 000-13zM0 8a8 8 0 1116 0A8 8 0 010 8zm9 3a1 1 0 11-2 0 1 1 0 012 0zm-.25-6.25a.75.75 0 00-1.5 0v3.5a.75.75 0 001.5 0v-3.5z"/>
    </svg>
      <text class="stat bold" x="25" y="12.5">Total Issues:</text>
      <text class="stat bold" x="341" y="12.5" text-anchor="end">15</text>
    </g>
    <line x1="25" y1="22" x2="361" y2="22" stroke="currentColor" stroke-opacity="0.07" stroke-width="1"/>
  </g>
  <g transform="translate(0, 140)">
    <g class="stagger" style="animation-delay: 1200ms" transform="translate(25, 0)">
      <svg data-testid="icon" class="icon" viewBox="0 0 16 16" version="1.1" width="16" height="16">
      <path fill-rule="evenodd" d="M2 2.5A2.5 2.5 0 014.5 0h8.75a.75.75 0 01.75.75v12.5a.75.75 0 01-.75.75h-2.5a.75.75 0 110-1.5h1.75v-2h-8a1 1 0 00-.714 1.7.75.75 0 01-1.072 1.05A2.495 2.495 0 012 11.5v-9zm10.5-1V9h-8c-.356 0-.694.074-1 .208V2.5a1 1 0 011-1h8zM5 12.25v3.25a.25.25 0 00.4.2l1.45-1.087a.25.25 0 01.3 0L8.6 15.7a.25.25 0 00.4-.2v-3.25a.25.25 0 00-.25-.25h-3.5a.25.25 0 00-.25.25z"/>
    </svg>
      <text class="stat bold" x="25" y="12.5">Total Reviews:</text>
      <text class="stat bold" x="341" y="12.5" text-anchor="end">33</text>
    </g>
    <line x1="25" y1="22" x2="361" y2="22" stroke="currentColor" stroke-opacity="0.07" stroke-width="1"/>
  </g>
  <g transform="translate(0, 168)">
    <g class="stagger" style="animation-delay: 1350ms" transform="translate(25, 0)">
      <svg data-testid="icon" class="icon" viewBox="0 0 16 16" version="1.1" width="16" height="16">
      <path fill-rule="evenodd" d="M5.5 3.5a2 2 0 100 4 2 2 0 000-4zM2 5.5a3.5 3.5 0 115.898 2.549 5.507 5.507 0 013.034 4.084.75.75 0 11-1.482.235 4.001 4.001 0 00-7.9 0 .75.75 0 01-1.482-.236A5.507 5.507 0 013.102 8.05 3.49 3.49 0 012 5.5zM11 4a.75.75 0 100 1.5 1.5 1.5 0 01.666 2.844.75.75 0 00-.416.672v.352a.75.75 0 00.574.73c1.2.289 2.162 1.2 2.522 2.372a.75.75 0 11-1.434.438 2.502 2.502 0 00-2.388-1.86.75.75 0 010-1.5A3 3 0 0011 4z"/>
    </svg>
      <text class="stat bold" x="25" y="12.5">Followers:</text>
      <text class="stat bold" x="341" y="12.5" text-anchor="end">4</text>
    </g>
    <line x1="25" y1="22" x2="361" y2="22" stroke="currentColor" stroke-opacity="0.07" stroke-width="1"/>
  </g>
  <g transform="translate(0, 196)">
    <g class="stagger" style="animation-delay: 1500ms" transform="translate(25, 0)">
      <svg data-testid="icon" class="icon" viewBox="0 0 16 16" version="1.1" width="16" height="16">
      <path fill-rule="evenodd" d="M2 2.5A2.5 2.5 0 014.5 0h8.75a.75.75 0 01.75.75v12.5a.75.75 0 01-.75.75h-2.5a.75.75 0 110-1.5h1.75v-2h-8a1 1 0 00-.714 1.7.75.75 0 01-1.072 1.05A2.495 2.495 0 012 11.5v-9zm10.5-1V9h-8c-.356 0-.694.074-1 .208V2.5a1 1 0 011-1h8zM5 12.25v3.25a.25.25 0 00.4.2l1.45-1.087a.25.25 0 01.3 0L8.6 15.7a.25.25 0 00.4-.2v-3.25a.25.25 0 00-.25-.25h-3.5a.25.25 0 00-.25.25z"/>
    </svg>
      <text class="stat bold" x="25" y="12.5">Contributed to (last year):</text>
      <text class="stat bold" x="341" y="12.5" text-anchor="end">4</text>
    </g>
    
  </g>
    </svg>
  </g>

  <!-- Rank circle -->
  
  <g data-testid="rank-circle" transform="translate(422, 167)">
    <!-- Rim -->
    <circle class="rank-circle-rim" cx="0" cy="0" r="40" />
    <!-- Animated arc -->
    <circle
      class="rank-circle"
      cx="0" cy="0" r="40"
      style="
        stroke-dasharray: 251;
        stroke-dashoffset: -1300.18;
        transform-origin: 0px 0px;
        transform: rotate(-90deg);
        animation: rankSpin 1s forwards ease-in-out;
      "
    />
    <!-- Rank letter -->
    <g class="rank-text">
      <text x="0" y="0"
        alignment-baseline="middle"
        dominant-baseline="middle"
        text-anchor="middle"
        data-testid="level-rank-icon"
        dy="0.06em"
      >B</text>
    </g>
    <!-- RANK label below letter -->
    <text x="0" y="18"
      text-anchor="middle"
      class="rank-label"
    >RANK</text>
  </g>
</svg>