<?xml version="1.0" encoding="UTF-8"?>
<svg width="495" height="310" viewBox="0 0 495 310" fill="none" xmlns="http://www.w3.org/2000/svg" role="img" aria-labelledby="title desc">
  <title id="title">Phantom-VK&apos;s Top Languages</title>
  <desc id="desc">Phantom-VK&apos;s Top Languages</desc>
  <defs>
    <linearGradient id="accent-gradient" x1="0" y1="0" x2="1" y2="1">
      <stop offset="0%" stop-color="#58a6ff" />
      <stop offset="100%" stop-color="#3fb950" />
    </linearGradient>
    <clipPath id="lang-bar-clip"><rect width="435" height="16" rx="8" /></clipPath>
  </defs>
  <style>
    .title { fill: #f0f6fc; font: 700 20px 'Segoe UI', Ubuntu, Sans-Serif; }
    .label { fill: #8b949e; font: 600 11px 'Segoe UI', Ubuntu, Sans-Serif; letter-spacing: 0.08em; text-transform: uppercase; }
    .value { fill: #c9d1d9; font: 700 18px 'Segoe UI', Ubuntu, Sans-Serif; }
    .meta { fill: #8b949e; font: 500 12px 'Segoe UI', Ubuntu, Sans-Serif; }
    .small { fill: #8b949e; font: 500 11px 'Segoe UI', Ubuntu, Sans-Serif; }
  </style>
  <rect x="0.5" y="0.5" width="494" height="309" rx="16" fill="#0d1117" stroke="#30363d" />
  
    <rect x="20" y="20" width="455" height="72" rx="16" fill="#161b22" />
    <text x="32" y="49" class="title">Phantom-VK&apos;s Top Languages</text>
    <text x="32" y="69" class="meta">Aggregated from your owned public repositories</text>

    <g transform="translate(30 104)">
      <rect width="435" height="16" rx="8" fill="rgba(255,255,255,0.06)" />
      <g clip-path="url(#lang-bar-clip)">
        <rect x="0.00" y="0" width="250.79" height="16" fill="#DA5B0B" /><rect x="250.79" y="0" width="76.26" height="16" fill="#A97BFF" /><rect x="327.04" y="0" width="43.99" height="16" fill="#3572A5" /><rect x="371.03" y="0" width="18.90" height="16" fill="#b07219" /><rect x="389.93" y="0" width="18.52" height="16" fill="#e34c26" /><rect x="408.45" y="0" width="9.73" height="16" fill="#f1e05a" />
      </g>
    </g>

    
        <circle cx="34" cy="117" r="6" fill="#DA5B0B" />
        <text x="50" y="121" class="value" style="font-size:15px;">Jupyter Notebook</text>
        <text x="455" y="121" text-anchor="end" class="meta">58%</text>
      
        <circle cx="34" cy="145" r="6" fill="#A97BFF" />
        <text x="50" y="149" class="value" style="font-size:15px;">Kotlin</text>
        <text x="455" y="149" text-anchor="end" class="meta">18%</text>
      
        <circle cx="34" cy="173" r="6" fill="#3572A5" />
        <text x="50" y="177" class="value" style="font-size:15px;">Python</text>
        <text x="455" y="177" text-anchor="end" class="meta">10%</text>
      
        <circle cx="34" cy="201" r="6" fill="#b07219" />
        <text x="50" y="205" class="value" style="font-size:15px;">Java</text>
        <text x="455" y="205" text-anchor="end" class="meta">4.3%</text>
      
        <circle cx="34" cy="229" r="6" fill="#e34c26" />
        <text x="50" y="233" class="value" style="font-size:15px;">HTML</text>
        <text x="455" y="233" text-anchor="end" class="meta">4.3%</text>
      
        <circle cx="34" cy="257" r="6" fill="#f1e05a" />
        <text x="50" y="261" class="value" style="font-size:15px;">JavaScript</text>
        <text x="455" y="261" text-anchor="end" class="meta">2.2%</text>
      
  
</svg>