<?xml version="1.0" encoding="UTF-8"?>
<svg width="495" height="418" viewBox="0 0 495 418" fill="none" xmlns="http://www.w3.org/2000/svg" role="img" aria-labelledby="title desc">
  <title id="title">Phantom-VK&apos;s Top Languages</title>
  <desc id="desc">Phantom-VK&apos;s Top Languages</desc>
  <defs>
    <linearGradient id="accent-gradient" x1="0" y1="0" x2="1" y2="1">
      <stop offset="0%" stop-color="#58a6ff" />
      <stop offset="100%" stop-color="#3fb950" />
    </linearGradient>
    <linearGradient id="surface-gradient" x1="0" y1="0" x2="1" y2="1">
      <stop offset="0%" stop-color="#0d1117" />
      <stop offset="100%" stop-color="#161b22" />
    </linearGradient>
    <radialGradient id="glow-blue" cx="0" cy="0" r="1" gradientUnits="userSpaceOnUse" gradientTransform="translate(89.1 50.16) rotate(37) scale(188.1 217.36)">
      <stop stop-color="#58a6ff" stop-opacity="0.22" />
      <stop offset="1" stop-color="#58a6ff" stop-opacity="0" />
    </radialGradient>
    <radialGradient id="glow-green" cx="0" cy="0" r="1" gradientUnits="userSpaceOnUse" gradientTransform="translate(435.6 62.699999999999996) rotate(140) scale(138.60000000000002 167.20000000000002)">
      <stop stop-color="#3fb950" stop-opacity="0.18" />
      <stop offset="1" stop-color="#3fb950" stop-opacity="0" />
    </radialGradient>
    <pattern id="grid-pattern" x="0" y="0" width="22" height="22" patternUnits="userSpaceOnUse">
      <path d="M22 0H0V22" fill="none" stroke="#30363d" stroke-opacity="0.18" />
    </pattern>
    <clipPath id="lang-bar-clip"><rect width="431" height="18" rx="9" /></clipPath>
  </defs>
  <style>
    .title { fill: #f0f6fc; font: 700 20px 'Segoe UI', Ubuntu, Sans-Serif; }
    .label { fill: #8b949e; font: 600 11px 'Segoe UI', Ubuntu, Sans-Serif; letter-spacing: 0.08em; text-transform: uppercase; }
    .value { fill: #c9d1d9; font: 700 18px 'Segoe UI', Ubuntu, Sans-Serif; }
    .meta { fill: #8b949e; font: 500 12px 'Segoe UI', Ubuntu, Sans-Serif; }
    .small { fill: #8b949e; font: 500 11px 'Segoe UI', Ubuntu, Sans-Serif; }
    .pill { fill: #f0f6fc; font: 700 10px 'Segoe UI', Ubuntu, Sans-Serif; letter-spacing: 0.12em; text-transform: uppercase; }
  </style>
  <rect x="0.5" y="0.5" width="494" height="417" rx="18" fill="url(#surface-gradient)" stroke="#30363d" />
  <rect x="0.5" y="0.5" width="494" height="417" rx="18" fill="url(#grid-pattern)" opacity="0.35" />
  <rect x="0.5" y="0.5" width="494" height="417" rx="18" fill="url(#glow-blue)" />
  <rect x="0.5" y="0.5" width="494" height="417" rx="18" fill="url(#glow-green)" />
  
    <rect x="20" y="20" width="455" height="106" rx="18" fill="rgba(13,17,23,0.62)" stroke="rgba(240,246,252,0.08)" />
    <rect x="32" y="34" width="108" height="24" rx="12" fill="url(#accent-gradient)" opacity="0.22" />
    <text x="86" y="50" text-anchor="middle" class="pill">Languages</text>
    <text x="32" y="84" class="title">Phantom-VK&apos;s Top Languages</text>
    <text x="32" y="104" class="meta">Weighted by language bytes across your owned repositories</text>

    <g transform="translate(32 132)">
      <rect width="431" height="18" rx="9" fill="rgba(240,246,252,0.08)" />
      <g clip-path="url(#lang-bar-clip)">
        <rect x="0.00" y="0" width="291.89" height="16" fill="#3572A5" /><rect x="291.89" y="0" width="75.51" height="16" fill="#A97BFF" /><rect x="367.40" y="0" width="18.72" height="16" fill="#b07219" /><rect x="386.11" y="0" width="18.34" height="16" fill="#e34c26" /><rect x="404.45" y="0" width="9.90" height="16" fill="#f1e05a" /><rect x="414.35" y="0" width="6.00" height="16" fill="#3178c6" />
      </g>
    </g>

    
        <g transform="translate(24 130)">
          <rect width="447" height="28" rx="10" fill="rgba(13,17,23,0.46)" stroke="rgba(240,246,252,0.06)" />
          <circle cx="16" cy="14" r="6" fill="#3572A5" />
          <text x="30" y="18" class="value" style="font-size:14px;">Python</text>
          <text x="431" y="18" text-anchor="end" class="meta">68%</text>
        </g>
      
        <g transform="translate(24 170)">
          <rect width="447" height="28" rx="10" fill="rgba(13,17,23,0.46)" stroke="rgba(240,246,252,0.06)" />
          <circle cx="16" cy="14" r="6" fill="#A97BFF" />
          <text x="30" y="18" class="value" style="font-size:14px;">Kotlin</text>
          <text x="431" y="18" text-anchor="end" class="meta">18%</text>
        </g>
      
        <g transform="translate(24 210)">
          <rect width="447" height="28" rx="10" fill="rgba(13,17,23,0.46)" stroke="rgba(240,246,252,0.06)" />
          <circle cx="16" cy="14" r="6" fill="#b07219" />
          <text x="30" y="18" class="value" style="font-size:14px;">Java</text>
          <text x="431" y="18" text-anchor="end" class="meta">4.3%</text>
        </g>
      
        <g transform="translate(24 250)">
          <rect width="447" height="28" rx="10" fill="rgba(13,17,23,0.46)" stroke="rgba(240,246,252,0.06)" />
          <circle cx="16" cy="14" r="6" fill="#e34c26" />
          <text x="30" y="18" class="value" style="font-size:14px;">HTML</text>
          <text x="431" y="18" text-anchor="end" class="meta">4.3%</text>
        </g>
      
        <g transform="translate(24 290)">
          <rect width="447" height="28" rx="10" fill="rgba(13,17,23,0.46)" stroke="rgba(240,246,252,0.06)" />
          <circle cx="16" cy="14" r="6" fill="#f1e05a" />
          <text x="30" y="18" class="value" style="font-size:14px;">JavaScript</text>
          <text x="431" y="18" text-anchor="end" class="meta">2.3%</text>
        </g>
      
        <g transform="translate(24 330)">
          <rect width="447" height="28" rx="10" fill="rgba(13,17,23,0.46)" stroke="rgba(240,246,252,0.06)" />
          <circle cx="16" cy="14" r="6" fill="#3178c6" />
          <text x="30" y="18" class="value" style="font-size:14px;">TypeScript</text>
          <text x="431" y="18" text-anchor="end" class="meta">1.4%</text>
        </g>
      
  
</svg>